<svg height="222.485955" viewBox="0 0 1000 495.00002" width="449.466575" xmlns="http://www.w3.org/2000/svg" xmlns:xlink="http://www.w3.org/1999/xlink">
 <g fill="#00514b">
  <g transform="matrix(1.24588816121 0 0 1.24865052514 -201.90484950168 -7.74163313387)">
   <path d="m506.3 6.4h8.6c7.2 2.4 10.9 7.3 10.7 15-.1 7.9-5.2 11.6-11.9 14.2-29.8 11.8-53.2 31.3-67.2 60.3-20.3 42.3-11.9 81.6 17.1 116.3 33.5 40.1 77.5 55.7 128.4 43.9 50.7-11.7 84.3-44.2 96.6-95.2 9.4-38.9-5.6-71.4-33.1-98.7-12.2-12.1-26.7-20.7-42.7-26.9-6.4-2.5-11.3-5.9-11.5-13.6-.3-7.6 3.1-12.7 10.2-15.4 2.9 0 5.7 0 8.6-.1 16.3 3.9 29.2 13.8 40.3 25.5 39.2 41.5 50.8 90.4 32.1 144-18.6 53.2-58.4 83.5-114.3 90.5-82.1 10.3-155.3-58.1-152-140.8 1.8-43.8 20.1-79 54.4-106 7.7-5.8 16.1-10.7 25.7-13z">
   </path>
   <path d="m443.6 147.4c-3.4-29.4 7.2-54 26.5-75.4 7.1-7.9 14.9-15 24.8-19.3 8.9-4 16.3-1.9 19.9 5.4 3.7 7.6 1 14.5-8 18.8-29.6 14-49.5 36.8-61.6 66.9-.5 1.1-1 2.4-1.6 3.6z">
   </path>
   <path d="m684.1 148.5c-2.8-6-5.1-11.2-7.6-16.3-12.5-25-31.1-43.7-56.5-55.3-6.6-3-10.1-7.6-9-15 .9-6.2 4.7-9.8 10.7-11.2 4-.9 7.7.7 11.2 2.3 31.1 14.3 56.1 60.2 51.2 95.5z">
   </path>
   <path d="m447.9 158.8c-1.9-1.8-1.4-3.2-.9-4.4 6.7-18.8 16.6-35.7 30.8-49.9 2.7-2.7 5.9-5.1 9.2-7.1 6.7-3.9 14-2.2 17.5 3.6 3.8 6.5 1.7 13.6-5.8 17.3-16.2 7.8-30.6 18.1-42.7 31.4-2.9 3-5.5 6.1-8.1 9.1z">
   </path>
   <path d="m680.1 159.8c-8.7-9.8-16-18.3-25.1-25.2-8-6.1-16.4-11.2-25.4-15.7-8.3-4.1-11-11.4-6.9-18.1 3.9-6.5 11.2-7.7 18.8-2.5 14.3 9.9 23.5 24.1 31.3 39.2 3.3 6.4 7 12.9 7.3 22.3z">
   </path>
  </g>
  <g transform="matrix(.71390707034 0 0 .71548993403 565.47692405573 156.69802008614)">
   <path d="m-460.19539 469.51532h-87.79717v-130.0781h85.0818v22.03114h-62.51144v27.66411h36.32057v22.01188h-36.32057v36.33983h65.22681z">
   </path>
   <path d="m-653.88262 469.51532h-22.57036v-130.0781h22.57036v51.1396h54.58677v-51.1396h22.56074v130.0781h-22.56074v-56.37777h-54.58677z">
   </path>
   <path d="m-755.22779 361.65132h-36.85979v-22.2141h96.28032v22.2141h-36.85017v107.864h-22.57036z">
   </path>
  </g>
  <g transform="matrix(.58432360843 0 0 .58561916168 823.05133990124 106.39583613038)">
   <path d="m-417.51005 596.87803-56.95551-95.97219h31.4483l24.65986 43.65786c4.57377 8.20391 10.90002 20.41347 14.37609 27.51004 3.44718-6.96176 9.67714-18.82468 14.37609-27.27894l24.88132-43.88896h30.99573l-56.93624 95.97219v62.65587h-26.84564z">
   </path>
   <path d="m-555.46466 500.90584h-44.09117v158.62806h44.09117c48.41458 0 77.32083-29.6573 77.32083-79.31403 0-49.66635-28.90625-79.31403-77.32083-79.31403m-17.24553 26.18124h17.24553c41.3469 0 50.03226 28.89661 50.03226 53.13279s-8.68536 53.12317-50.03226 53.12317h-17.24553z">
   </path>
   <path d="m-696.7509 498.47933c-40.68251 0-68.01922 32.93117-68.01922 81.96201 0 48.76123 27.16339 81.51907 67.57628 81.51907 40.81731 0 68.24069-32.94079 68.24069-81.96201 0-48.76123-27.25006-81.51907-67.79775-81.51907m.22146 136.85691c-24.49616 0-40.95211-22.23335-40.95211-55.33784 0-33.35483 15.72415-54.90452 40.06625-54.90452 24.62134 0 41.16395 22.24297 41.16395 55.34746 0 33.34521-15.81081 54.8949-40.27809 54.8949">
   </path>
   <path d="m-809.67976 573.63364c11.17927-6.79807 17.06258-17.31293 17.06258-30.62021 0-26.36418-17.31293-42.10759-46.31546-42.10759h-65.57346v158.62806h63.35879c35.44433 0 54.95267-17.55366 54.95267-49.416 0-20.08608-11.89181-31.79494-23.48512-36.48426m-29.69582 61.0382h-39.61368v-47.7887h40.28771c16.30189 0 25.66127 8.71424 25.66127 23.89916 0 16.07079-8.61795 23.88954-26.3353 23.88954m.22147-72.41967h-39.83515v-36.49389h39.83515c16.273 0 19.69129 10.11044 19.69129 18.58396 0 4.19824-1.42509 17.90993-19.69129 17.90993">
   </path>
  </g>
  <g transform="matrix(.61786718286 0 0 .61923710841 1216.68854505371 -29.01135116726)">
   <path d="m-399.50383 694.09236h-63.01214v149.83679h25.11241v-54.52899h36.43612c31.00536 0 50.26335-18.30472 50.26335-47.75982 0-29.32992-18.6995-47.54798-48.79974-47.54798m-.41405 71.02347h-37.48568v-46.74877h37.48568c14.56867 0 23.27328 8.70461 23.27328 23.27328 0 15.35825-8.04984 23.47549-23.27328 23.47549">
   </path>
   <path d="m-555.78242 691.79103c-38.43895 0-64.26391 31.11129-64.26391 77.42675 0 46.05549 25.65164 77.00307 63.84024 77.00307 38.56412 0 64.47575-31.11128 64.47575-77.42674 0-46.05549-25.73831-77.00308-64.05208-77.00308m.20221 129.10557c-23.04218 0-38.52561-20.93344-38.52561-52.10249 0-31.39053 14.79977-51.68845 37.68789-51.68845 23.16736 0 38.73744 20.94307 38.73744 52.11212 0 31.39053-14.87679 51.67882-37.89972 51.67882">
   </path>
   <path d="m-672.29326 694.09236h25.5361v149.83679h-25.5361v-65.18829h-63.67654v65.18829h-25.52647v-149.83679h25.52647v59.12203h63.67654z">
   </path>
   <path d="m-788.21673 800.12686c0 29.7247-19.84536 46.09399-55.89631 46.09399-21.06824 0-40.01811-8.60832-53.39278-24.23618l-1.08808-1.28065 18.18918-17.71735 1.25177 1.35769c9.5327 10.34154 23.60066 16.76408 36.70572 16.76408 19.44094 0 28.4922-6.20108 28.4922-19.50835 0-9.97564-7.4047-15.2427-31.71791-22.51259-32.52674-9.67714-47.03764-18.42989-47.03764-44.75557 0-25.04501 20.58679-42.5409 50.05152-42.5409 19.15207 0 34.75104 6.46106 49.09824 20.34607l1.29992 1.27103-18.01585 18.25657-1.28066-1.30954c-9.10903-9.30161-19.20985-13.45171-32.76747-13.45171-14.18351 0-22.6474 6.12404-22.6474 16.37892 0 8.40612 4.26565 13.19173 30.67798 21.05862 26.31604 8.00169 48.07757 16.97591 48.07757 45.78587">
   </path>
  </g>
 </g>
</svg>