<svg width="109" height="47" viewBox="0 0 109 47" fill="none" xmlns="http://www.w3.org/2000/svg">
<g id="GS Logo Full">
<path id="Vector" d="M40.2547 38.0104V32.7746L27.0746 46.5217C25.6068 46.8351 24.0873 46.9999 22.5306 46.9999C20.1466 46.9999 17.8491 46.6139 15.6921 45.8976C6.59216 42.8783 0 33.9922 0 23.4999C0 10.5211 10.0871 0 22.5306 0C33.516 0 42.6646 8.19929 44.6581 19.0506C44.9225 20.4913 45.0613 21.9784 45.0613 23.4999C45.0613 28.9764 43.2654 34.0148 40.2547 38.0104Z" fill="#002726"/>
<path id="Vector_2" d="M47.0432 19.0507V44.8693H40.254V32.7747L27.0739 46.5218C25.6061 46.8352 24.0866 47 22.5299 47C20.1459 47 17.8483 46.614 15.6914 45.8977L34.6418 26.132H21.3884V19.0507H47.0432Z" fill="#33C375"/>
<path id="Vector_3" d="M58.8024 24.3967H61.0249V28.7949C60.4279 29.2538 59.757 29.6002 59.0432 29.818C58.3102 30.0543 57.5469 30.1752 56.779 30.1765C55.7558 30.1948 54.7446 29.9466 53.8389 29.4546C52.9898 28.9965 52.2799 28.305 51.7877 27.4563C51.3022 26.5765 51.0469 25.5814 51.0469 24.5688C51.0469 23.5562 51.3022 22.561 51.7877 21.6813C52.2807 20.827 52.9963 20.1329 53.8528 19.6781C54.7689 19.1873 55.7888 18.9392 56.8207 18.9563C57.6779 18.9456 58.5288 19.108 59.3256 19.4343C60.0544 19.7394 60.7032 20.2177 61.2194 20.8303L59.659 22.3171C59.3134 21.9303 58.8928 21.6231 58.4244 21.4155C57.9561 21.2079 57.4507 21.1046 56.9411 21.1124C56.3208 21.0991 55.7074 21.2488 55.1585 21.5474C54.6436 21.8196 54.2159 22.2396 53.9269 22.7569C53.6403 23.3133 53.4904 23.9338 53.4904 24.564C53.4904 25.1942 53.6403 25.8147 53.9269 26.3711C54.2104 26.8894 54.6291 27.3151 55.1353 27.5997C55.6762 27.9031 56.284 28.0563 56.8994 28.0443C57.5577 28.0487 58.2068 27.8844 58.7885 27.5663L58.8024 24.3967ZM66.4746 21.8438C66.997 21.6284 67.5558 21.5228 68.1183 21.5331V23.7608C67.859 23.7608 67.6831 23.7322 67.5951 23.7322C67.3085 23.7146 67.0214 23.7567 66.751 23.8561C66.4805 23.9555 66.2322 24.1101 66.0208 24.3106C65.8156 24.5461 65.6589 24.8223 65.5602 25.1222C65.4615 25.4222 65.4229 25.7397 65.4467 26.0556V29.9901H63.1316V21.6573H65.368V22.7569C65.6478 22.3526 66.0309 22.0364 66.4746 21.8438ZM70.9936 29.5646C70.3389 29.2179 69.7906 28.6898 69.4101 28.0396C69.037 27.3646 68.8407 26.6009 68.8407 25.8237C68.8407 25.0466 69.037 24.2828 69.4101 23.6079C69.7886 22.9523 70.3371 22.4191 70.9936 22.0685C71.7035 21.7067 72.4846 21.5186 73.2763 21.5186C74.0679 21.5186 74.849 21.7067 75.5589 22.0685C76.2101 22.4169 76.755 22.9447 77.1332 23.5935C77.5095 24.2674 77.7075 25.0315 77.7075 25.8094C77.7075 26.5872 77.5095 27.3514 77.1332 28.0252C76.755 28.674 76.2101 29.2019 75.5589 29.5503C74.849 29.912 74.0679 30.1002 73.2763 30.1002C72.4846 30.1002 71.7035 29.912 70.9936 29.5503V29.5646ZM74.7626 27.5041C75.1332 27.0304 75.3353 26.4398 75.3353 25.8309C75.3353 25.2219 75.1332 24.6314 74.7626 24.1576C74.5755 23.9452 74.3464 23.7768 74.0907 23.6638C73.8351 23.5508 73.5589 23.4958 73.2809 23.5027C73.0044 23.4931 72.7291 23.5439 72.4729 23.6518C72.2168 23.7597 71.9856 23.9223 71.7946 24.129C71.4208 24.6012 71.2165 25.1923 71.2165 25.8022C71.2165 26.4121 71.4208 27.0032 71.7946 27.4754C71.9862 27.6813 72.2174 27.8435 72.4734 27.9513C72.7294 28.0592 73.0045 28.1104 73.2809 28.1017C73.5546 28.1147 73.8279 28.0682 74.0831 27.9652C74.3383 27.8623 74.5698 27.7052 74.7626 27.5041ZM92.0052 21.6573L89.0836 29.9901H86.8334L85.0183 24.8174L83.1385 29.9901H80.8882L77.9805 21.6573H80.1845L82.0921 27.2938L84.0692 21.6573H86.0509L87.9724 27.2938L89.9356 21.6573H92.0052ZM98.5338 29.5885C98.278 29.7736 97.9904 29.9066 97.6864 29.9805C97.34 30.0719 96.9837 30.1169 96.6261 30.1144C95.8166 30.1671 95.0186 29.8948 94.399 29.3542C94.1235 29.0609 93.911 28.7109 93.7754 28.327C93.6398 27.9431 93.5841 27.5341 93.6119 27.1264V23.7035H92.3571V21.8438H93.6026V19.812H95.9455V21.8438H97.955V23.7035H95.9455V27.093C95.9252 27.3885 96.0184 27.6805 96.2048 27.9057C96.3024 28.0051 96.4193 28.082 96.5478 28.1314C96.6763 28.1809 96.8134 28.2017 96.9502 28.1925C97.284 28.1993 97.6101 28.0898 97.8763 27.8818L98.5338 29.5885ZM107.174 22.4605C107.791 23.082 108.1 24.0015 108.1 25.219V29.9996H105.785V25.6014C105.823 25.071 105.673 24.5444 105.363 24.1194C105.206 23.953 105.016 23.8241 104.806 23.7415C104.595 23.6589 104.37 23.6248 104.146 23.6413C103.888 23.6313 103.632 23.6768 103.393 23.7747C103.154 23.8727 102.937 24.021 102.756 24.2102C102.559 24.4382 102.407 24.7042 102.309 24.993C102.211 25.2818 102.17 25.5876 102.187 25.893V30.014H99.8719V18.5403H102.187V22.5466C102.507 22.2209 102.89 21.9698 103.312 21.8103C103.774 21.6384 104.261 21.5526 104.752 21.557C105.193 21.5348 105.635 21.6033 106.05 21.7584C106.466 21.9134 106.848 22.1521 107.174 22.4605ZM52.811 46.45C52.1715 46.2516 51.5798 45.916 51.0747 45.4651L51.6303 44.2556C52.0813 44.6577 52.6033 44.9661 53.1675 45.164C53.7869 45.394 54.4401 45.512 55.0983 45.513C55.7795 45.5557 56.4577 45.3893 57.0476 45.0349C57.2454 44.905 57.4081 44.7255 57.5207 44.5132C57.6332 44.3009 57.6919 44.0626 57.6912 43.8206C57.6976 43.6522 57.6696 43.4842 57.609 43.3277C57.5483 43.1712 57.4564 43.0297 57.3393 42.9123C57.091 42.6696 56.7937 42.4867 56.4688 42.3768C56.1262 42.2525 55.6354 42.1139 55.0057 41.9609C54.3565 41.8081 53.7178 41.6117 53.0934 41.3729C52.6133 41.1785 52.1859 40.8668 51.8479 40.4646C51.4811 39.9957 51.2963 39.4027 51.3293 38.8009C51.3283 38.2436 51.4896 37.6989 51.7924 37.2376C52.1263 36.7401 52.5927 36.3532 53.1351 36.1237C53.8433 35.8215 54.6056 35.678 55.3715 35.703C55.9891 35.702 56.6041 35.7856 57.2004 35.9516C57.7528 36.0923 58.2765 36.3335 58.7469 36.6639L58.2514 37.9021C57.8124 37.616 57.3372 37.394 56.8392 37.2424C56.3625 37.097 55.8685 37.0214 55.3715 37.0177C54.7015 36.9686 54.0333 37.1357 53.4592 37.4957C53.2611 37.6306 53.0988 37.8146 52.9872 38.0309C52.8756 38.2472 52.8182 38.4889 52.8203 38.7339C52.8144 38.9032 52.8436 39.0717 52.9059 39.2283C52.9682 39.385 53.0621 39.5261 53.1814 39.6423C53.4401 39.884 53.7443 40.0679 54.075 40.1825C54.5487 40.3475 55.031 40.4848 55.5196 40.5936C56.1616 40.7489 56.7927 40.9486 57.4087 41.1912C57.8837 41.386 58.3073 41.694 58.645 42.09C59.009 42.5456 59.1941 43.1257 59.1636 43.7154C59.1625 44.2709 59.0014 44.8134 58.7006 45.2739C58.3539 45.7783 57.8706 46.1658 57.3115 46.3878C56.5962 46.6811 55.8306 46.821 55.0613 46.799C54.2979 46.8074 53.5382 46.6896 52.811 46.45ZM63.9234 46.254C63.3021 45.9052 62.785 45.3878 62.4278 44.7576C62.0789 44.0978 61.896 43.3581 61.896 42.6063C61.896 41.8545 62.0789 41.1148 62.4278 40.455C62.7854 39.8276 63.3026 39.3133 63.9234 38.9682C64.591 38.6061 65.3363 38.4236 66.0903 38.4375C66.758 38.4247 67.4189 38.5789 68.0164 38.8869C68.5715 39.1738 69.0298 39.627 69.3314 40.1873L68.234 40.9139C68.0054 40.5407 67.6862 40.2358 67.308 40.0295C66.9277 39.8317 66.5068 39.7317 66.081 39.7379C65.5965 39.7325 65.1185 39.8542 64.692 40.0917C64.2801 40.3274 63.9413 40.6788 63.715 41.1052C63.4742 41.5692 63.353 42.0895 63.3631 42.6159C63.3515 43.1485 63.4726 43.6753 63.715 44.1457C63.9413 44.5721 64.2801 44.9235 64.692 45.1592C65.1177 45.3988 65.5962 45.5207 66.081 45.513C66.5068 45.5192 66.9277 45.4191 67.308 45.2213C67.6862 45.0151 68.0054 44.7101 68.234 44.3369L69.3499 45.0158C69.0462 45.5767 68.5887 46.0324 68.0349 46.3257C67.4406 46.6456 66.7791 46.8098 66.1088 46.8037C65.351 46.8104 64.6045 46.6144 63.9419 46.2348L63.9234 46.254ZM79.2399 39.322C79.5552 39.6796 79.797 40.0996 79.9506 40.5564C80.1042 41.0133 80.1664 41.4976 80.1335 41.98V46.7033H78.6936V42.1474C78.7406 41.498 78.5414 40.8551 78.1379 40.3546C77.9286 40.1436 77.6786 39.9805 77.4042 39.8759C77.1297 39.7713 76.8371 39.7275 76.5452 39.7474C76.2059 39.7271 75.8662 39.7794 75.5475 39.9012C75.2287 40.023 74.9378 40.2115 74.6931 40.455C74.4558 40.7277 74.2738 41.0467 74.1577 41.3932C74.0416 41.7397 73.9938 42.1066 74.0171 42.4724V46.7033H72.5771V35.2297H74.0171V39.6757C74.3337 39.2563 74.75 38.9286 75.2256 38.7244C75.741 38.5 76.2961 38.3892 76.8554 38.3993C77.294 38.377 77.7326 38.4455 78.1452 38.6007C78.5579 38.7558 78.9364 38.9946 79.2584 39.3028L79.2399 39.322ZM85.6249 46.254C85.0066 45.9061 84.4937 45.3881 84.1432 44.7576C83.7972 44.0968 83.6159 43.3575 83.6159 42.6063C83.6159 41.8551 83.7972 41.1157 84.1432 40.455C84.4941 39.8272 85.0071 39.3124 85.6249 38.9682C86.2819 38.6177 87.0106 38.4348 87.7501 38.4348C88.4896 38.4348 89.2184 38.6177 89.8754 38.9682C90.4886 39.3155 90.9979 39.8297 91.3478 40.455C91.6938 41.1157 91.8751 41.8551 91.8751 42.6063C91.8751 43.3575 91.6938 44.0968 91.3478 44.7576C90.9983 45.3857 90.4891 45.9031 89.8754 46.254C89.2196 46.6087 88.4904 46.794 87.7501 46.794C87.0099 46.794 86.2806 46.6087 85.6249 46.254ZM89.1253 45.1305C89.5301 44.8889 89.8606 44.5343 90.0791 44.1074C90.3044 43.6378 90.4216 43.1208 90.4216 42.5967C90.4216 42.0727 90.3044 41.5557 90.0791 41.086C89.8603 40.662 89.5296 40.3106 89.1253 40.0725C88.7027 39.8403 88.2312 39.7188 87.7524 39.7188C87.2737 39.7188 86.8022 39.8403 86.3796 40.0725C85.9761 40.3131 85.6445 40.6637 85.4212 41.086C85.1899 41.5538 85.0693 42.0715 85.0693 42.5967C85.0693 43.1219 85.1899 43.6397 85.4212 44.1074C85.6441 44.5325 85.9755 44.8864 86.3796 45.1305C86.8003 45.369 87.2725 45.4941 87.7524 45.4941C88.2324 45.4941 88.7046 45.369 89.1253 45.1305ZM96.6493 46.254C96.0323 45.906 95.5209 45.388 95.1723 44.7576C94.8262 44.0968 94.645 43.3575 94.645 42.6063C94.645 41.8551 94.8262 41.1157 95.1723 40.455C95.5215 39.8275 96.0329 39.3127 96.6493 38.9682C97.3077 38.6196 98.0369 38.4378 98.7768 38.4378C99.5167 38.4378 100.246 38.6196 100.904 38.9682C101.516 39.3158 102.024 39.83 102.372 40.455C102.718 41.1157 102.899 41.8551 102.899 42.6063C102.899 43.3575 102.718 44.0968 102.372 44.7576C102.024 45.3853 101.517 45.9028 100.904 46.254C100.248 46.6087 99.5179 46.794 98.7768 46.794C98.0358 46.794 97.3058 46.6087 96.6493 46.254ZM100.154 45.1305C100.558 44.8886 100.887 44.5339 101.103 44.1074C101.333 43.6391 101.453 43.1216 101.453 42.5967C101.453 42.0719 101.333 41.5544 101.103 41.086C100.886 40.6623 100.557 40.3109 100.154 40.0725C99.7291 39.8314 99.2502 39.7095 98.7653 39.7188C98.2801 39.7081 97.8009 39.8302 97.3762 40.0725C96.9704 40.3116 96.6369 40.6625 96.4131 41.086C96.1819 41.5538 96.0613 42.0715 96.0613 42.5967C96.0613 43.1219 96.1819 43.6397 96.4131 44.1074C96.6593 44.5371 97.0191 44.8854 97.4503 45.1114C97.8725 45.3613 98.3529 45.4869 98.8393 45.4747C99.3069 45.4753 99.7665 45.3501 100.173 45.1114L100.154 45.1305ZM106.4 35.2106H107.84V46.6842H106.4V35.2106Z" fill="#002726"/>
</g>
</svg>
