<svg xmlns="http://www.w3.org/2000/svg" xmlns:xlink="http://www.w3.org/1999/xlink" version="1.0" id="Layer_1" x="0px" y="0px" viewBox="0 0 146.2 39" enable-background="new 0 0 146.2 39" xml:space="preserve">
<path fill="#F5AB40" d="M75.8,39V20h-2.9v19H73H75.8z M72.9,13.3h2.8v3.1h-2.8V13.3z"/>
<path fill="#00A7DC" d="M79.5,0h2.8v26.8h-2.8V0z"/>
<path fill="#F5AB40" d="M66.3,0h2.8v26.8h-2.8V0z M14.5,8.3h2.8v18.5h-2.8V8.3z"/>
<path fill="#00A7DC" d="M92.8,8.3c-5.2,0-8.3,4.2-8.3,9.6c0,5.3,3.3,8.9,8.7,8.9c2.8,0,4.8-0.6,5.9-1.1l0.2-0.1v-2.4  c-1.1,0.4-3.5,1.1-5.7,1.1c-3.2,0-6-1.8-6.1-6.1H100c0-0.3,0.1-0.8,0.1-1.5C100.1,13.4,98.6,8.3,92.8,8.3 M97,15.8h-9.4  c0.3-2.2,1.7-5.2,4.9-5.2C96.2,10.6,97.1,13.8,97,15.8 M116.7,14.9c0.1-3.6-1.8-6.6-7.1-6.6c-2.3,0-4.3,0.3-5.8,1.2v2.4  c1.5-0.7,3.6-1.3,5.3-1.3c3.8,0.2,4.6,2.6,4.6,4.1v1.6c-7.9-2.4-11.5,1-11.4,5.4c0.1,2.6,1.9,5.1,5.6,5.1c2.5,0,4.8-0.6,5.9-1.9v1.9  h2.9V14.9 M113.8,21.7c-1.2,1.4-2.6,2.8-5,2.8c-1.7,0-3.4-1.1-3.4-3.2c0-3.5,4.5-3.6,8.4-2.5C113.8,18.8,113.8,21.7,113.8,21.7z"/>
<path fill="#F5AB40" d="M63.7,14c-1-3.8-3.6-5.6-7.3-5.7h-1.1c-0.1,0-0.3,0-0.4,0.1c-2.4,0.4-3.9,2-3.9,2V8.3h-2.8v26.9H51V24.9  c0,0,1.8,1.7,4.3,1.9h1.6c2.9-0.3,5-1.6,6.2-4.2C64.4,19.8,64.5,16.9,63.7,14 M61.2,18.1v0.4c-0.1,0.7-0.3,1.4-0.4,1.9  c-0.2,0.5-1.1,2.7-3.3,3.3c-0.4,0.1-0.8,0.2-1.3,0.2c0,0-3.6,0-5.2-2.9v-7.1c0-0.1,1.1-2.4,4.1-3c0.4-0.1,1.7-0.2,2.9,0.2h0.1  l0.2,0.1l0.2,0.1l0.2,0.1c0.9,0.6,2.5,2.2,2.6,5.5C61.3,17.4,61.2,17.7,61.2,18.1"/>
<path fill="#00A7DC" d="M121.8,10.5V8.3h-3v18.5h3V16.5c0-2,0.4-3,0.5-3.1l0.6-0.9c0.3-0.3,0.9-0.8,1.8-1.2c0.3-0.1,0.6-0.2,1-0.3  h0.5c0.4-0.1,0.8-0.1,1.3-0.2h1.4V8.3C124.5,8.1,122.3,10.1,121.8,10.5z"/>
<path fill="#F5AB40" d="M12.3,20.6c-0.2-2.1-1.5-3.3-3.5-3.9c-0.5-0.2-1.1-0.3-1.6-0.4C6.1,16,5,15.8,4,15.4  c-1.9-0.8-1.5-3.1-0.4-3.9c0.7-0.5,1.6-0.8,2.5-0.8h1.7c0.6,0.1,1.1,0.1,1.7,0.3c1.1,0.3,2,0.7,2,0.7V9.3c-0.1,0-0.6-0.2-0.6-0.2  c-2-0.6-4-0.9-6.1-0.6C2.1,8.9-0.3,10.8,0,14.3c0.1,1.4,0.8,2.5,2.1,3c1,0.5,2.2,0.7,3.2,1c0.9,0.3,1.9,0.6,2.8,0.9  c0.6,0.2,1,0.7,1.1,1.3c0.4,1.4-0.1,2.6-1.6,3.3c-1.3,0.6-2.7,0.6-4.1,0.5c-2.5-0.2-3.5-1-3.5-1v2.3c0,0,0.7,0.3,1.6,0.6l1.2,0.3  c1.4,0.2,2.8,0.2,4.3-0.1c0.9-0.2,1.8-0.5,2.6-0.9C11.6,24.7,12.6,22.8,12.3,20.6 M14.5,2.7h2.8v3.1h-2.8V2.7z"/>
<path fill="#00A7DC" d="M145.7,13.2c-1-3.9-4.2-4.6-4.9-4.8h-0.3c-1.8-0.2-3.1,0-4.2,0.4l-0.2,0.1c-1.4,0.6-2,1.5-2,1.5V8.3h-3v18.4  h3V15.4c0-2.4,2-4.4,4.5-4.4h0.1c0,0,2.2-0.2,3.5,1.5l0.1,0.1l0.2,0.3c0.1,0.2,0.2,0.3,0.3,0.5c0,0.1,0.1,0.2,0.1,0.4  c0.1,0.4,0.3,1.4,0.3,3.3v9.6h3v-11C146,14.7,145.9,13.9,145.7,13.2"/>
<path fill="#F5AB40" d="M38.8,8.3c-3.6,0.1-5.2,1.8-5.7,2.5l-0.2,0.3v-0.2l-0.1-0.1l-0.1-0.2C32,9.6,31,9,30.5,8.8  c-1.4-0.5-2.6-0.5-2.8-0.5h-0.1c-1.8-0.1-3.1,0.6-3.1,0.6c-1.5,0.6-2.2,1.5-2.2,1.5V8.3h-2.8v18.4h2.8V15.6c0-0.7,0.1-1.2,0.2-1.5  c0.5-2,2.3-3.4,4.4-3.4c1.9,0,3.4,1,4.1,2.6c0.2,0.5,0.3,1.1,0.3,1.7v11.6h2.8V15.2c0-2.6,2-4.5,4.5-4.5c0.9,0,1.8,0.3,2.5,0.8  c1.2,0.8,2,2,2,3.6v11.5H46V15.5c0-1.5-0.3-2.7-0.8-3.7C43.4,8.6,40.1,8.3,38.8,8.3"/>
</svg>